User Type,Username,Date,Text
,ZUKTOR,2011-10-25T08:37Z,"Great upload, but that cue sucks.
Use this one instead:
TITLE ""TH1RT3EN""
PERFORMER ""Megadeth""
CATALOG 0016861770020
REM GENRE ""Metal""
REM DATE ""2011""
REM DISCNUMBER 1
REM TOTALDISCS 1
REM DISCID A20D850D
FILE ""01 - Sudden Death.flac"" WAVE
  TRACK 01 AUDIO
    TITLE ""Sudden Death""
    INDEX 01 00:00:00
FILE ""02 - Public Enemy No. 1.flac"" WAVE
  TRACK 02 AUDIO
    TITLE ""Public Enemy No. 1""
    INDEX 01 00:00:00
FILE ""03 - Whose Life Is It Anyways.flac"" WAVE
  TRACK 03 AUDIO
    TITLE ""Whose Life (Is It Anyways?)""
    INDEX 01 00:00:00
FILE ""04 - We The People.flac"" WAVE
  TRACK 04 AUDIO
    TITLE ""We The People""
    INDEX 01 00:00:00
FILE ""05 - Guns, Drugs, & Money.flac"" WAVE
  TRACK 05 AUDIO
    TITLE ""Guns, Drugs, & Money""
    INDEX 01 00:00:00
FILE ""06 - Never Dead.flac"" WAVE
  TRACK 06 AUDIO
    TITLE ""Never Dead""
    INDEX 01 00:00:00
FILE ""07 - New World Order.flac"" WAVE
  TRACK 07 AUDIO
    TITLE ""New World Order""
    INDEX 01 00:00:00
FILE ""08 - Fast Lane.flac"" WAVE
  TRACK 08 AUDIO
    TITLE ""Fast Lane""
    INDEX 01 00:00:00
FILE ""09 - Black Swan.flac"" WAVE
  TRACK 09 AUDIO
    TITLE ""Black Swan""
    INDEX 01 00:00:00
FILE ""10 - Wrecker.flac"" WAVE
  TRACK 10 AUDIO
    TITLE ""Wrecker""
    INDEX 01 00:00:00
FILE ""11 - Millennium Of The Blind.flac"" WAVE
  TRACK 11 AUDIO
    TITLE ""Millennium Of The Blind""
    INDEX 01 00:00:00
FILE ""12 - Deadly Nightshade.flac"" WAVE
  TRACK 12 AUDIO
    TITLE ""Deadly Nightshade""
    INDEX 01 00:00:00
FILE ""13 - 13.flac"" WAVE
  TRACK 13 AUDIO
    TITLE ""13""
    INDEX 01 00:00:00"
,ElephantTLK,2011-10-25T16:36Z,Thanks. @Zuktor thanks for cue...
,NewWorldOrphan9,2011-11-03T06:22Z,"Thank you so much for making the .flac version of this album available, its the best format for heavy metal!
-ALSO-
Mr. Mustaine himself was on the Alex Jones Show today, Wednesday 11/02/2011, WWW.INFOWARS,COM"
,wall_,2011-11-12T20:45Z,"Here is a better cue:
TITLE ""TH1RT3EN""
PERFORMER ""Megadeth""
CATALOG 0016861770020
REM GENRE ""Metal""
REM DATE ""2011""
REM DISCNUMBER 1
REM TOTALDISCS 1
REM DISCID A20D850DREM REPLAYGAIN_ALBUM_GAIN -10.76 dB
REM REPLAYGAIN_ALBUM_PEAK 1.000000FILE ""01 - Sudden Death.flac"" WAVE
  TRACK 01 AUDIO
    TITLE ""Sudden Death""
    ISRC NLA321191671
    REM REPLAYGAIN_TRACK_GAIN -9.74 dB
    REM REPLAYGAIN_TRACK_PEAK 1.000000
    INDEX 01 00:00:00
FILE ""02 - Public Enemy No. 1.flac"" WAVE
  TRACK 02 AUDIO
    TITLE ""Public Enemy No. 1""
    REM REPLAYGAIN_TRACK_GAIN -11.14 dB
    REM REPLAYGAIN_TRACK_PEAK 1.000000
    INDEX 01 00:00:00
FILE ""03 - Whose Life (Is It Anyways?).flac"" WAVE
  TRACK 03 AUDIO
    TITLE ""Whose Life (Is It Anyways?)""
    ISRC NLA321191673
    REM REPLAYGAIN_TRACK_GAIN -10.79 dB
    REM REPLAYGAIN_TRACK_PEAK 1.000000
    INDEX 01 00:00:00
FILE ""04 - We The People.flac"" WAVE
  TRACK 04 AUDIO
    TITLE ""We The People""
    ISRC NLA321191674
    REM REPLAYGAIN_TRACK_GAIN -10.31 dB
    REM REPLAYGAIN_TRACK_PEAK 1.000000
    INDEX 01 00:00:00
FILE ""05 - Guns, Drugs, & Money.flac"" WAVE
  TRACK 05 AUDIO
    TITLE ""Guns, Drugs, & Money""
    ISRC NLA321191675
    REM REPLAYGAIN_TRACK_GAIN -10.81 dB
    REM REPLAYGAIN_TRACK_PEAK 1.000000
    INDEX 01 00:00:00
FILE ""06 - Never Dead.flac"" WAVE
  TRACK 06 AUDIO
    TITLE ""Never Dead""
    ISRC NLA321191676
    REM REPLAYGAIN_TRACK_GAIN -10.97 dB
    REM REPLAYGAIN_TRACK_PEAK 1.000000
    INDEX 01 00:00:00
FILE ""07 - New World Order.flac"" WAVE
  TRACK 07 AUDIO
    TITLE ""New World Order""
    SONGWRITER ""Marty Friedman/David Ellefson""
    ISRC NLA321191677
    REM REPLAYGAIN_TRACK_GAIN -10.94 dB
    REM REPLAYGAIN_TRACK_PEAK 1.000000
    INDEX 01 00:00:00
FILE ""08 - Fast Lane.flac"" WAVE
  TRACK 08 AUDIO
    TITLE ""Fast Lane""
    ISRC NLA321191678
    REM REPLAYGAIN_TRACK_GAIN -11.13 dB
    REM REPLAYGAIN_TRACK_PEAK 1.000000
    INDEX 01 00:00:00
FILE ""09 - Black Swan.flac"" WAVE
  TRACK 09 AUDIO
    TITLE ""Black Swan""
    ISRC NLA321191679
    REM REPLAYGAIN_TRACK_GAIN -10.18 dB
    REM REPLAYGAIN_TRACK_PEAK 1.000000
    INDEX 01 00:00:00
FILE ""10 - Wrecker.flac"" WAVE
  TRACK 10 AUDIO
    TITLE ""Wrecker""
    ISRC NLA321191680
    REM REPLAYGAIN_TRACK_GAIN -10.72 dB
    REM REPLAYGAIN_TRACK_PEAK 1.000000
    INDEX 01 00:00:00
FILE ""11 - Millennium Of The Blind.flac"" WAVE
  TRACK 11 AUDIO
    TITLE ""Millennium Of The Blind""
    SONGWRITER ""Marty Friedman""
    ISRC NLA321191681
    REM REPLAYGAIN_TRACK_GAIN -10.79 dB
    REM REPLAYGAIN_TRACK_PEAK 1.000000
    INDEX 01 00:00:00
FILE ""12 - Deadly Nightshade.flac"" WAVE
  TRACK 12 AUDIO
    TITLE ""Deadly Nightshade""
    ISRC NLA321191682
    REM REPLAYGAIN_TRACK_GAIN -11.24 dB
    REM REPLAYGAIN_TRACK_PEAK 1.000000
    INDEX 01 00:00:00
FILE ""13 - 13.flac"" WAVE
  TRACK 13 AUDIO
    TITLE ""13""
    ISRC NLA321191683
    REM REPLAYGAIN_TRACK_GAIN -9.15 dB
    REM REPLAYGAIN_TRACK_PEAK 1.000000
    INDEX 01 00:00:00"
